%TF.GenerationSoftware,KiCad,Pcbnew,10.0.1*%
%TF.CreationDate,2026-05-26T01:56:23+03:00*%
%TF.ProjectId,DIPLOM,4449504c-4f4d-42e6-9b69-6361645f7063,rev?*%
%TF.SameCoordinates,Original*%
%TF.FileFunction,Copper,L1,Top*%
%TF.FilePolarity,Positive*%
%FSLAX46Y46*%
G04 Gerber Fmt 4.6, Leading zero omitted, Abs format (unit mm)*
G04 Created by KiCad (PCBNEW 10.0.1) date 2026-05-26 01:56:23*
%MOMM*%
%LPD*%
G01*
G04 APERTURE LIST*
G04 Aperture macros list*
%AMRoundRect*
0 Rectangle with rounded corners*
0 $1 Rounding radius*
0 $2 $3 $4 $5 $6 $7 $8 $9 X,Y pos of 4 corners*
0 Add a 4 corners polygon primitive as box body*
4,1,4,$2,$3,$4,$5,$6,$7,$8,$9,$2,$3,0*
0 Add four circle primitives for the rounded corners*
1,1,$1+$1,$2,$3*
1,1,$1+$1,$4,$5*
1,1,$1+$1,$6,$7*
1,1,$1+$1,$8,$9*
0 Add four rect primitives between the rounded corners*
20,1,$1+$1,$2,$3,$4,$5,0*
20,1,$1+$1,$4,$5,$6,$7,0*
20,1,$1+$1,$6,$7,$8,$9,0*
20,1,$1+$1,$8,$9,$2,$3,0*%
G04 Aperture macros list end*
%ADD10C,0.300000*%
%TA.AperFunction,NonConductor*%
%ADD11C,0.300000*%
%TD*%
%TA.AperFunction,NonConductor*%
%ADD12C,0.200000*%
%TD*%
%TA.AperFunction,ComponentPad*%
%ADD13C,1.700000*%
%TD*%
%TA.AperFunction,ComponentPad*%
%ADD14R,1.700000X1.700000*%
%TD*%
%TA.AperFunction,ComponentPad*%
%ADD15C,1.600000*%
%TD*%
%TA.AperFunction,ComponentPad*%
%ADD16RoundRect,0.250000X0.550000X0.550000X-0.550000X0.550000X-0.550000X-0.550000X0.550000X-0.550000X0*%
%TD*%
%TA.AperFunction,ComponentPad*%
%ADD17C,1.400000*%
%TD*%
%TA.AperFunction,ComponentPad*%
%ADD18C,2.000000*%
%TD*%
%TA.AperFunction,FiducialPad,Global*%
%ADD19C,2.000000*%
%TD*%
%TA.AperFunction,ComponentPad*%
%ADD20RoundRect,0.250000X-0.550000X-0.550000X0.550000X-0.550000X0.550000X0.550000X-0.550000X0.550000X0*%
%TD*%
%TA.AperFunction,Conductor*%
%ADD21C,0.200000*%
%TD*%
G04 APERTURE END LIST*
D10*
D11*
X272778328Y-102839998D02*
X272778328Y-103697141D01*
X272778328Y-103268570D02*
X271278328Y-103268570D01*
X271278328Y-103268570D02*
X271492614Y-103411427D01*
X271492614Y-103411427D02*
X271635471Y-103554284D01*
X271635471Y-103554284D02*
X271706900Y-103697141D01*
X271278328Y-101482856D02*
X271278328Y-102197142D01*
X271278328Y-102197142D02*
X271992614Y-102268570D01*
X271992614Y-102268570D02*
X271921185Y-102197142D01*
X271921185Y-102197142D02*
X271849757Y-102054285D01*
X271849757Y-102054285D02*
X271849757Y-101697142D01*
X271849757Y-101697142D02*
X271921185Y-101554285D01*
X271921185Y-101554285D02*
X271992614Y-101482856D01*
X271992614Y-101482856D02*
X272135471Y-101411427D01*
X272135471Y-101411427D02*
X272492614Y-101411427D01*
X272492614Y-101411427D02*
X272635471Y-101482856D01*
X272635471Y-101482856D02*
X272706900Y-101554285D01*
X272706900Y-101554285D02*
X272778328Y-101697142D01*
X272778328Y-101697142D02*
X272778328Y-102054285D01*
X272778328Y-102054285D02*
X272706900Y-102197142D01*
X272706900Y-102197142D02*
X272635471Y-102268570D01*
X271278328Y-100482856D02*
X271278328Y-100339999D01*
X271278328Y-100339999D02*
X271349757Y-100197142D01*
X271349757Y-100197142D02*
X271421185Y-100125714D01*
X271421185Y-100125714D02*
X271564042Y-100054285D01*
X271564042Y-100054285D02*
X271849757Y-99982856D01*
X271849757Y-99982856D02*
X272206900Y-99982856D01*
X272206900Y-99982856D02*
X272492614Y-100054285D01*
X272492614Y-100054285D02*
X272635471Y-100125714D01*
X272635471Y-100125714D02*
X272706900Y-100197142D01*
X272706900Y-100197142D02*
X272778328Y-100339999D01*
X272778328Y-100339999D02*
X272778328Y-100482856D01*
X272778328Y-100482856D02*
X272706900Y-100625714D01*
X272706900Y-100625714D02*
X272635471Y-100697142D01*
X272635471Y-100697142D02*
X272492614Y-100768571D01*
X272492614Y-100768571D02*
X272206900Y-100839999D01*
X272206900Y-100839999D02*
X271849757Y-100839999D01*
X271849757Y-100839999D02*
X271564042Y-100768571D01*
X271564042Y-100768571D02*
X271421185Y-100697142D01*
X271421185Y-100697142D02*
X271349757Y-100625714D01*
X271349757Y-100625714D02*
X271278328Y-100482856D01*
D12*
X266900000Y-26840000D02*
X274486420Y-26840000D01*
X274486420Y-176840000D02*
X266900000Y-176840000D01*
X273900000Y-26840000D02*
X273900000Y-176840000D01*
X273900000Y-26840000D02*
X274486421Y-27966504D01*
X273900000Y-26840000D02*
X273313579Y-27966504D01*
X273900000Y-176840000D02*
X273313579Y-175713496D01*
X273900000Y-176840000D02*
X274486421Y-175713496D01*
D10*
D11*
X215400001Y-16718328D02*
X214542858Y-16718328D01*
X214971429Y-16718328D02*
X214971429Y-15218328D01*
X214971429Y-15218328D02*
X214828572Y-15432614D01*
X214828572Y-15432614D02*
X214685715Y-15575471D01*
X214685715Y-15575471D02*
X214542858Y-15646900D01*
X216328572Y-15218328D02*
X216471429Y-15218328D01*
X216471429Y-15218328D02*
X216614286Y-15289757D01*
X216614286Y-15289757D02*
X216685715Y-15361185D01*
X216685715Y-15361185D02*
X216757143Y-15504042D01*
X216757143Y-15504042D02*
X216828572Y-15789757D01*
X216828572Y-15789757D02*
X216828572Y-16146900D01*
X216828572Y-16146900D02*
X216757143Y-16432614D01*
X216757143Y-16432614D02*
X216685715Y-16575471D01*
X216685715Y-16575471D02*
X216614286Y-16646900D01*
X216614286Y-16646900D02*
X216471429Y-16718328D01*
X216471429Y-16718328D02*
X216328572Y-16718328D01*
X216328572Y-16718328D02*
X216185715Y-16646900D01*
X216185715Y-16646900D02*
X216114286Y-16575471D01*
X216114286Y-16575471D02*
X216042857Y-16432614D01*
X216042857Y-16432614D02*
X215971429Y-16146900D01*
X215971429Y-16146900D02*
X215971429Y-15789757D01*
X215971429Y-15789757D02*
X216042857Y-15504042D01*
X216042857Y-15504042D02*
X216114286Y-15361185D01*
X216114286Y-15361185D02*
X216185715Y-15289757D01*
X216185715Y-15289757D02*
X216328572Y-15218328D01*
X217757143Y-15218328D02*
X217900000Y-15218328D01*
X217900000Y-15218328D02*
X218042857Y-15289757D01*
X218042857Y-15289757D02*
X218114286Y-15361185D01*
X218114286Y-15361185D02*
X218185714Y-15504042D01*
X218185714Y-15504042D02*
X218257143Y-15789757D01*
X218257143Y-15789757D02*
X218257143Y-16146900D01*
X218257143Y-16146900D02*
X218185714Y-16432614D01*
X218185714Y-16432614D02*
X218114286Y-16575471D01*
X218114286Y-16575471D02*
X218042857Y-16646900D01*
X218042857Y-16646900D02*
X217900000Y-16718328D01*
X217900000Y-16718328D02*
X217757143Y-16718328D01*
X217757143Y-16718328D02*
X217614286Y-16646900D01*
X217614286Y-16646900D02*
X217542857Y-16575471D01*
X217542857Y-16575471D02*
X217471428Y-16432614D01*
X217471428Y-16432614D02*
X217400000Y-16146900D01*
X217400000Y-16146900D02*
X217400000Y-15789757D01*
X217400000Y-15789757D02*
X217471428Y-15504042D01*
X217471428Y-15504042D02*
X217542857Y-15361185D01*
X217542857Y-15361185D02*
X217614286Y-15289757D01*
X217614286Y-15289757D02*
X217757143Y-15218328D01*
D12*
X166400000Y-26340000D02*
X166400000Y-17253580D01*
X266400000Y-17253580D02*
X266400000Y-26340000D01*
X166400000Y-17840000D02*
X266400000Y-17840000D01*
X166400000Y-17840000D02*
X167526504Y-17253579D01*
X166400000Y-17840000D02*
X167526504Y-18426421D01*
X266400000Y-17840000D02*
X265273496Y-18426421D01*
X266400000Y-17840000D02*
X265273496Y-17253579D01*
D13*
%TO.P,P3,20*%
%TO.N,Net-(J2-Pin_5)*%
X196490000Y-66120000D03*
%TO.P,P3,19*%
%TO.N,Net-(J2-Pin_6)*%
X193950000Y-66120000D03*
%TO.P,P3,18*%
%TO.N,Net-(J2-Pin_8)*%
X196490000Y-63580000D03*
%TO.P,P3,17*%
%TO.N,Net-(J2-Pin_7)*%
X193950000Y-63580000D03*
%TO.P,P3,16*%
%TO.N,N/C*%
X196490000Y-61040000D03*
%TO.P,P3,15*%
%TO.N,Net-(J10-Pin_4)*%
X193950000Y-61040000D03*
%TO.P,P3,14*%
%TO.N,Net-(J10-Pin_3)*%
X196490000Y-58500000D03*
%TO.P,P3,13*%
%TO.N,Net-(J10-Pin_2)*%
X193950000Y-58500000D03*
%TO.P,P3,12*%
%TO.N,Net-(J10-Pin_1)*%
X196490000Y-55960000D03*
%TO.P,P3,11*%
%TO.N,N/C*%
X193950000Y-55960000D03*
%TO.P,P3,10*%
X196490000Y-53420000D03*
%TO.P,P3,9*%
X193950000Y-53420000D03*
%TO.P,P3,8*%
X196490000Y-50880000D03*
%TO.P,P3,7*%
X193950000Y-50880000D03*
%TO.P,P3,6*%
X196490000Y-48340000D03*
%TO.P,P3,5*%
X193950000Y-48340000D03*
%TO.P,P3,4*%
X196490000Y-45800000D03*
%TO.P,P3,3*%
X193950000Y-45800000D03*
%TO.P,P3,2*%
X196490000Y-43260000D03*
D14*
%TO.P,P3,1*%
X193950000Y-43260000D03*
%TD*%
D15*
%TO.P,C4,2*%
%TO.N,GND*%
X198410226Y-77000000D03*
D16*
%TO.P,C4,1*%
%TO.N,+5.0v*%
X200410226Y-77000000D03*
%TD*%
%TO.P,C5,1*%
%TO.N,+5.0v*%
X193455113Y-77000000D03*
D15*
%TO.P,C5,2*%
%TO.N,GND*%
X191455113Y-77000000D03*
%TD*%
D17*
%TO.P,R1,2*%
%TO.N,Net-(J1-~{RST})*%
X193696944Y-160900547D03*
%TO.P,R1,1*%
%TO.N,+5.0v*%
X198776944Y-160900547D03*
%TD*%
D18*
%TO.P,SW5,1,A_1*%
%TO.N,Net-(U5-PD5)*%
X219650000Y-137750000D03*
X213150000Y-137750000D03*
%TO.P,SW5,2,A_2*%
X219650000Y-142250000D03*
D19*
X213150000Y-142250000D03*
%TD*%
D18*
%TO.P,SW1,2,A_2*%
%TO.N,GND*%
X194250000Y-171250000D03*
X200750000Y-171250000D03*
%TO.P,SW1,1,A_1*%
X194250000Y-166750000D03*
X200750000Y-166750000D03*
%TD*%
D14*
%TO.P,REF\u002A\u002A,1*%
%TO.N,GND*%
X238019276Y-147000000D03*
D13*
%TO.P,REF\u002A\u002A,2*%
%TO.N,+3.3v*%
X235479276Y-147000000D03*
%TD*%
D14*
%TO.P,REF\u002A\u002A,1*%
%TO.N,GND*%
X238000000Y-169884497D03*
D13*
%TO.P,REF\u002A\u002A,2*%
%TO.N,+5.0v*%
X235460000Y-169884497D03*
%TD*%
%TO.P,P4,20*%
%TO.N,Net-(J1-MISO)*%
X238900000Y-66160000D03*
%TO.P,P4,19*%
%TO.N,Net-(J1-SCK)*%
X236360000Y-66160000D03*
%TO.P,P4,18*%
%TO.N,Net-(J13-Pin_1)*%
X238900000Y-63620000D03*
%TO.P,P4,17*%
%TO.N,Net-(J1-MOSI)*%
X236360000Y-63620000D03*
%TO.P,P4,16*%
%TO.N,N/C*%
X238900000Y-61080000D03*
%TO.P,P4,15*%
X236360000Y-61080000D03*
%TO.P,P4,14*%
X238900000Y-58540000D03*
%TO.P,P4,13*%
X236360000Y-58540000D03*
%TO.P,P4,12*%
X238900000Y-56000000D03*
%TO.P,P4,11*%
X236360000Y-56000000D03*
%TO.P,P4,10*%
X238900000Y-53460000D03*
%TO.P,P4,9*%
X236360000Y-53460000D03*
%TO.P,P4,8*%
X238900000Y-50920000D03*
%TO.P,P4,7*%
X236360000Y-50920000D03*
%TO.P,P4,6*%
X238900000Y-48380000D03*
%TO.P,P4,5*%
X236360000Y-48380000D03*
%TO.P,P4,4*%
X238900000Y-45840000D03*
%TO.P,P4,3*%
X236360000Y-45840000D03*
%TO.P,P4,2*%
X238900000Y-43300000D03*
D14*
%TO.P,P4,1*%
%TO.N,Net-(J12-Pin_1)*%
X236360000Y-43300000D03*
%TD*%
%TO.P,P2,1*%
%TO.N,Net-(J11-Pin_2)*%
X193940000Y-86660000D03*
D13*
%TO.P,P2,2*%
%TO.N,Net-(J11-Pin_1)*%
X196480000Y-86660000D03*
%TO.P,P2,3*%
%TO.N,N/C*%
X193940000Y-89200000D03*
%TO.P,P2,4*%
X196480000Y-89200000D03*
%TO.P,P2,5*%
X193940000Y-91740000D03*
%TO.P,P2,6*%
X196480000Y-91740000D03*
%TO.P,P2,7*%
X193940000Y-94280000D03*
%TO.P,P2,8*%
X196480000Y-94280000D03*
%TO.P,P2,9*%
X193940000Y-96820000D03*
%TO.P,P2,10*%
X196480000Y-96820000D03*
%TO.P,P2,11*%
X193940000Y-99360000D03*
%TO.P,P2,12*%
X196480000Y-99360000D03*
%TO.P,P2,13*%
X193940000Y-101900000D03*
%TO.P,P2,14*%
X196480000Y-101900000D03*
%TO.P,P2,15*%
X193940000Y-104440000D03*
%TO.P,P2,16*%
X196480000Y-104440000D03*
%TO.P,P2,17*%
%TO.N,Net-(J2-Pin_4)*%
X193940000Y-106980000D03*
%TO.P,P2,18*%
%TO.N,Net-(J2-Pin_3)*%
X196480000Y-106980000D03*
%TO.P,P2,19*%
%TO.N,Net-(J2-Pin_2)*%
X193940000Y-109520000D03*
%TO.P,P2,20*%
%TO.N,Net-(J2-Pin_1)*%
X196480000Y-109520000D03*
%TD*%
D14*
%TO.P,P1,1*%
%TO.N,Net-(J11-Pin_3)*%
X236350000Y-86700000D03*
D13*
%TO.P,P1,2*%
%TO.N,Net-(J11-Pin_4)*%
X238890000Y-86700000D03*
%TO.P,P1,3*%
%TO.N,Net-(J11-Pin_5)*%
X236350000Y-89240000D03*
%TO.P,P1,4*%
%TO.N,Net-(J11-Pin_6)*%
X238890000Y-89240000D03*
%TO.P,P1,5*%
%TO.N,Net-(J11-Pin_7)*%
X236350000Y-91780000D03*
%TO.P,P1,6*%
%TO.N,Net-(J11-Pin_8)*%
X238890000Y-91780000D03*
%TO.P,P1,7*%
%TO.N,N/C*%
X236350000Y-94320000D03*
%TO.P,P1,8*%
X238890000Y-94320000D03*
%TO.P,P1,9*%
X236350000Y-96860000D03*
%TO.P,P1,10*%
X238890000Y-96860000D03*
%TO.P,P1,11*%
X236350000Y-99400000D03*
%TO.P,P1,12*%
X238890000Y-99400000D03*
%TO.P,P1,13*%
X236350000Y-101940000D03*
%TO.P,P1,14*%
X238890000Y-101940000D03*
%TO.P,P1,15*%
X236350000Y-104480000D03*
%TO.P,P1,16*%
X238890000Y-104480000D03*
%TO.P,P1,17*%
%TO.N,+5.0v*%
X236350000Y-107020000D03*
%TO.P,P1,18*%
%TO.N,GND*%
X238890000Y-107020000D03*
%TO.P,P1,19*%
%TO.N,+3.3v*%
X236350000Y-109560000D03*
%TO.P,P1,20*%
%TO.N,N/C*%
X238890000Y-109560000D03*
%TD*%
D18*
%TO.P,SW4,2,A_2*%
%TO.N,Net-(U5-PD4)*%
X213150000Y-129750000D03*
X219650000Y-129750000D03*
%TO.P,SW4,1,A_1*%
X213150000Y-125250000D03*
X219650000Y-125250000D03*
%TD*%
%TO.P,SW3,2,A_2*%
%TO.N,Net-(U5-PD3)*%
X213150000Y-117250000D03*
X219650000Y-117250000D03*
%TO.P,SW3,1,A_1*%
X213150000Y-112750000D03*
X219650000Y-112750000D03*
%TD*%
%TO.P,SW2,2,A_2*%
%TO.N,Net-(U5-PD6)*%
X227650000Y-129750000D03*
X234150000Y-129750000D03*
%TO.P,SW2,1,A_1*%
X227650000Y-125250000D03*
X234150000Y-125250000D03*
%TD*%
%TO.P,SW6,1,A_1*%
%TO.N,Net-(U5-PD2)*%
X205150000Y-125250000D03*
X198650000Y-125250000D03*
%TO.P,SW6,2,A_2*%
X205150000Y-129750000D03*
X198650000Y-129750000D03*
%TD*%
D16*
%TO.P,C3,1*%
%TO.N,Net-(U5-AREF)*%
X238900000Y-77000000D03*
D15*
%TO.P,C3,2*%
%TO.N,GND*%
X236900000Y-77000000D03*
%TD*%
%TO.P,U5,40,PA0_40*%
%TO.N,Net-(J2-Pin_1)*%
X224000000Y-50880000D03*
%TO.P,U5,39,PA1_39*%
%TO.N,Net-(J2-Pin_2)*%
X224000000Y-53420000D03*
%TO.P,U5,38,PA2_38*%
%TO.N,Net-(J2-Pin_3)*%
X224000000Y-55960000D03*
%TO.P,U5,37,PA3_37*%
%TO.N,Net-(J2-Pin_4)*%
X224000000Y-58500000D03*
%TO.P,U5,36,PA4_36*%
%TO.N,Net-(J2-Pin_5)*%
X224000000Y-61040000D03*
%TO.P,U5,35,PA5_35*%
%TO.N,Net-(J2-Pin_6)*%
X224000000Y-63580000D03*
%TO.P,U5,34,PA6_34*%
%TO.N,Net-(J2-Pin_7)*%
X224000000Y-66120000D03*
%TO.P,U5,33,PA7_33*%
%TO.N,Net-(J2-Pin_8)*%
X224000000Y-68660000D03*
%TO.P,U5,32,AREF_32*%
%TO.N,Net-(U5-AREF)*%
X224000000Y-71200000D03*
%TO.P,U5,31,GND_31*%
%TO.N,GND*%
X224000000Y-73740000D03*
%TO.P,U5,30,AVCC_30*%
%TO.N,+5.0v*%
X224000000Y-76280000D03*
%TO.P,U5,29,PC7_29*%
%TO.N,Net-(J11-Pin_8)*%
X224000000Y-78820000D03*
%TO.P,U5,28,PC6_28*%
%TO.N,Net-(J11-Pin_7)*%
X224000000Y-81360000D03*
%TO.P,U5,27,PC5_27*%
%TO.N,Net-(J11-Pin_6)*%
X224000000Y-83900000D03*
%TO.P,U5,26,PC4_26*%
%TO.N,Net-(J11-Pin_5)*%
X224000000Y-86440000D03*
%TO.P,U5,25,PC3_25*%
%TO.N,Net-(J11-Pin_4)*%
X224000000Y-88980000D03*
%TO.P,U5,24,PC2_24*%
%TO.N,Net-(J11-Pin_3)*%
X224000000Y-91520000D03*
%TO.P,U5,23,PC1_23*%
%TO.N,Net-(J11-Pin_2)*%
X224000000Y-94060000D03*
%TO.P,U5,22,PC0_22*%
%TO.N,Net-(J11-Pin_1)*%
X224000000Y-96600000D03*
%TO.P,U5,21,PD7_21*%
%TO.N,Net-(J12-Pin_1)*%
X224000000Y-99140000D03*
%TO.P,U5,20,PD6_20*%
%TO.N,Net-(U5-PD6)*%
X208760000Y-99140000D03*
%TO.P,U5,19,PD5_19*%
%TO.N,Net-(U5-PD5)*%
X208760000Y-96600000D03*
%TO.P,U5,18,PD4_18*%
%TO.N,Net-(U5-PD4)*%
X208760000Y-94060000D03*
%TO.P,U5,17,PD3_17*%
%TO.N,Net-(U5-PD3)*%
X208760000Y-91520000D03*
%TO.P,U5,16,PD2_16*%
%TO.N,Net-(U5-PD2)*%
X208760000Y-88980000D03*
%TO.P,U5,15,PD1_15*%
%TO.N,Net-(J14-Pin_6)*%
X208760000Y-86440000D03*
%TO.P,U5,14,PD0_14*%
%TO.N,Net-(J14-Pin_5)*%
X208760000Y-83900000D03*
%TO.P,U5,13,XTAL1_13*%
%TO.N,unconnected-(U5-XTAL1-Pad13)*%
X208760000Y-81360000D03*
%TO.P,U5,12,XTAL2_12*%
%TO.N,unconnected-(U5-XTAL2-Pad12)*%
X208760000Y-78820000D03*
%TO.P,U5,11,GND_11*%
%TO.N,GND*%
X208760000Y-76280000D03*
%TO.P,U5,10,VCC_10*%
%TO.N,+5.0v*%
X208760000Y-73740000D03*
%TO.P,U5,9,~{RESET}_9*%
%TO.N,Net-(J1-~{RST})*%
X208760000Y-71200000D03*
%TO.P,U5,8,PB7_8*%
%TO.N,Net-(J1-SCK)*%
X208760000Y-68660000D03*
%TO.P,U5,7,PB6_7*%
%TO.N,Net-(J1-MISO)*%
X208760000Y-66120000D03*
%TO.P,U5,6,PB5_6*%
%TO.N,Net-(J1-MOSI)*%
X208760000Y-63580000D03*
%TO.P,U5,5,PB4_5*%
%TO.N,Net-(J13-Pin_1)*%
X208760000Y-61040000D03*
%TO.P,U5,4,PB3_4*%
%TO.N,Net-(J10-Pin_4)*%
X208760000Y-58500000D03*
%TO.P,U5,3,PB2_3*%
%TO.N,Net-(J10-Pin_3)*%
X208760000Y-55960000D03*
%TO.P,U5,2,PB1_2*%
%TO.N,Net-(J10-Pin_2)*%
X208760000Y-53420000D03*
D20*
%TO.P,U5,1,PB0_1*%
%TO.N,Net-(J10-Pin_1)*%
X208760000Y-50880000D03*
%TD*%
D14*
%TO.P,J14,1,Pin_1_1*%
%TO.N,GND*%
X225290000Y-42600000D03*
D13*
%TO.P,J14,2,Pin_2_2*%
%TO.N,+3.3v*%
X222750000Y-42600000D03*
%TO.P,J14,3,Pin_3_3*%
%TO.N,Net-(J1-SCK)*%
X220210000Y-42600000D03*
%TO.P,J14,4,Pin_4_4*%
%TO.N,Net-(J1-MOSI)*%
X217670000Y-42600000D03*
%TO.P,J14,5,Pin_5_5*%
%TO.N,Net-(J14-Pin_5)*%
X215130000Y-42600000D03*
%TO.P,J14,6,Pin_6_6*%
%TO.N,Net-(J14-Pin_6)*%
X212590000Y-42600000D03*
%TO.P,J14,7,Pin_7_7*%
%TO.N,Net-(J13-Pin_1)*%
X210050000Y-42600000D03*
%TO.P,J14,8,Pin_8_8*%
%TO.N,+3.3v*%
X207510000Y-42600000D03*
%TD*%
%TO.P,J1,6,GND_6*%
%TO.N,GND*%
X218400000Y-31500000D03*
%TO.P,J1,5,~{RST}_5*%
%TO.N,Net-(J1-~{RST})*%
X218400000Y-34040000D03*
%TO.P,J1,4,MOSI_4*%
%TO.N,Net-(J1-MOSI)*%
X215860000Y-31500000D03*
%TO.P,J1,3,SCK_3*%
%TO.N,Net-(J1-SCK)*%
X215860000Y-34040000D03*
%TO.P,J1,2,VCC_2*%
%TO.N,+5.0v*%
X213320000Y-31500000D03*
D14*
%TO.P,J1,1,MISO_1*%
%TO.N,Net-(J1-MISO)*%
X213320000Y-34040000D03*
%TD*%
%TO.N,GND*%
D21*
X203390000Y-80500000D02*
X201910226Y-80500000D01*
X208760000Y-76280000D02*
X207610000Y-76280000D01*
X207610000Y-76280000D02*
X203390000Y-80500000D01*
%TO.N,+5.0v*%
X201270000Y-66560000D02*
X208450000Y-73740000D01*
X201270000Y-38210000D02*
X201270000Y-66560000D01*
X207980000Y-31500000D02*
X201270000Y-38210000D01*
X213320000Y-31500000D02*
X207980000Y-31500000D01*
X208450000Y-73740000D02*
X208760000Y-73740000D01*
%TO.N,Net-(J1-~{RST})*%
X202860000Y-38810000D02*
X202860000Y-65300000D01*
X202860000Y-65300000D02*
X208760000Y-71200000D01*
X217010000Y-32650000D02*
X209020000Y-32650000D01*
X209020000Y-32650000D02*
X202860000Y-38810000D01*
X218400000Y-34040000D02*
X217010000Y-32650000D01*
%TO.N,Net-(J1-MISO)*%
X203980000Y-38680000D02*
X203980000Y-61340000D01*
X205750000Y-36910000D02*
X203980000Y-38680000D01*
X210450000Y-36910000D02*
X205750000Y-36910000D01*
X213320000Y-34040000D02*
X210450000Y-36910000D01*
X203980000Y-61340000D02*
X208760000Y-66120000D01*
%TO.N,Net-(J1-MOSI)*%
X204670000Y-59490000D02*
X208760000Y-63580000D01*
X204670000Y-39100000D02*
X204670000Y-59490000D01*
X218500000Y-38110000D02*
X205660000Y-38110000D01*
X205660000Y-38110000D02*
X204670000Y-39100000D01*
X220740000Y-35870000D02*
X218500000Y-38110000D01*
X218100000Y-29260000D02*
X220310000Y-29260000D01*
X220310000Y-29260000D02*
X220740000Y-29690000D01*
X220740000Y-29690000D02*
X220740000Y-35870000D01*
X215860000Y-31500000D02*
X218100000Y-29260000D01*
%TO.N,Net-(J12-Pin_1)*%
X236360000Y-42140000D02*
X236360000Y-43300000D01*
X238220000Y-40280000D02*
X236360000Y-42140000D01*
X240980000Y-40280000D02*
X238220000Y-40280000D01*
X242620000Y-110800000D02*
X242620000Y-41920000D01*
X240710000Y-112710000D02*
X242620000Y-110800000D01*
X235100000Y-112710000D02*
X240710000Y-112710000D01*
X233940000Y-111550000D02*
X235100000Y-112710000D01*
X242620000Y-41920000D02*
X240980000Y-40280000D01*
X233940000Y-109080000D02*
X233940000Y-111550000D01*
X224000000Y-99140000D02*
X233940000Y-109080000D01*
%TO.N,Net-(J2-Pin_8)*%
X195220000Y-62310000D02*
X196490000Y-63580000D01*
X185620000Y-69410000D02*
X192720000Y-62310000D01*
X185620000Y-114810000D02*
X185620000Y-69410000D01*
X203070000Y-117430000D02*
X188240000Y-117430000D01*
X192720000Y-62310000D02*
X195220000Y-62310000D01*
X217490000Y-103010000D02*
X203070000Y-117430000D01*
X217490000Y-75170000D02*
X217490000Y-103010000D01*
X188240000Y-117430000D02*
X185620000Y-114810000D01*
X224000000Y-68660000D02*
X217490000Y-75170000D01*
%TO.N,Net-(J2-Pin_7)*%
X193950000Y-63610000D02*
X193950000Y-63580000D01*
X186300000Y-71260000D02*
X193950000Y-63610000D01*
X202230000Y-116720000D02*
X189660000Y-116720000D01*
X186300000Y-113360000D02*
X186300000Y-71260000D01*
X216800000Y-102150000D02*
X202230000Y-116720000D01*
X216800000Y-73320000D02*
X216800000Y-102150000D01*
X189660000Y-116720000D02*
X186300000Y-113360000D01*
X224000000Y-66120000D02*
X216800000Y-73320000D01*
%TO.N,Net-(J2-Pin_6)*%
X193950000Y-66140000D02*
X193950000Y-66120000D01*
X187000000Y-73090000D02*
X193950000Y-66140000D01*
X190990000Y-115970000D02*
X187000000Y-111980000D01*
X216100000Y-101450000D02*
X201580000Y-115970000D01*
X201580000Y-115970000D02*
X190990000Y-115970000D01*
X187000000Y-111980000D02*
X187000000Y-73090000D01*
X216100000Y-65860000D02*
X216100000Y-101450000D01*
X218380000Y-63580000D02*
X216100000Y-65860000D01*
X224000000Y-63580000D02*
X218380000Y-63580000D01*
%TO.N,Net-(J2-Pin_5)*%
X196490000Y-66130000D02*
X196490000Y-66120000D01*
X187660000Y-111010000D02*
X187660000Y-74960000D01*
X191800000Y-115150000D02*
X187660000Y-111010000D01*
X215400000Y-100700000D02*
X200950000Y-115150000D01*
X200950000Y-115150000D02*
X191800000Y-115150000D01*
X218130000Y-61040000D02*
X215400000Y-63770000D01*
X187660000Y-74960000D02*
X196490000Y-66130000D01*
X224000000Y-61040000D02*
X218130000Y-61040000D01*
X215400000Y-63770000D02*
X215400000Y-100700000D01*
%TO.N,Net-(J2-Pin_4)*%
X191850000Y-106980000D02*
X193940000Y-106980000D01*
X190670000Y-108160000D02*
X191850000Y-106980000D01*
X200150000Y-114400000D02*
X192480000Y-114400000D01*
X214710000Y-59900000D02*
X214710000Y-99840000D01*
X214710000Y-99840000D02*
X200150000Y-114400000D01*
X216170000Y-58440000D02*
X214710000Y-59900000D01*
X223940000Y-58440000D02*
X216170000Y-58440000D01*
X192480000Y-114400000D02*
X190670000Y-112590000D01*
X190670000Y-112590000D02*
X190670000Y-108160000D01*
X224000000Y-58500000D02*
X223940000Y-58440000D01*
%TO.N,Net-(J2-Pin_1)*%
X195210000Y-108250000D02*
X196480000Y-109520000D01*
X192290000Y-108250000D02*
X195210000Y-108250000D01*
X191380000Y-109160000D02*
X192290000Y-108250000D01*
X199350000Y-113700000D02*
X193630000Y-113700000D01*
X193630000Y-113700000D02*
X191380000Y-111450000D01*
X214110000Y-58820000D02*
X214110000Y-98940000D01*
X191380000Y-111450000D02*
X191380000Y-109160000D01*
X222050000Y-50880000D02*
X214110000Y-58820000D01*
X214110000Y-98940000D02*
X199350000Y-113700000D01*
X224000000Y-50880000D02*
X222050000Y-50880000D01*
%TO.N,Net-(J2-Pin_2)*%
X193940000Y-112580000D02*
X193940000Y-109520000D01*
X194370000Y-113010000D02*
X193940000Y-112580000D01*
X213500000Y-98100000D02*
X198590000Y-113010000D01*
X198590000Y-113010000D02*
X194370000Y-113010000D01*
X220960000Y-49780000D02*
X213500000Y-57240000D01*
X213500000Y-57240000D02*
X213500000Y-98100000D01*
X225100000Y-50424365D02*
X224455635Y-49780000D01*
X225100000Y-52320000D02*
X225100000Y-50424365D01*
X224000000Y-53420000D02*
X225100000Y-52320000D01*
X224455635Y-49780000D02*
X220960000Y-49780000D01*
%TO.N,Net-(J2-Pin_3)*%
X196490000Y-106990000D02*
X196480000Y-106980000D01*
X203100000Y-106990000D02*
X196490000Y-106990000D01*
X212910000Y-55970000D02*
X212910000Y-97180000D01*
X219500000Y-49380000D02*
X212910000Y-55970000D01*
X225500000Y-50258679D02*
X224621320Y-49380000D01*
X224621320Y-49380000D02*
X219500000Y-49380000D01*
X225500000Y-54460000D02*
X225500000Y-50258679D01*
X212910000Y-97180000D02*
X203100000Y-106990000D01*
X224000000Y-55960000D02*
X225500000Y-54460000D01*
%TO.N,Net-(J14-Pin_6)*%
X212310000Y-54666346D02*
X212310000Y-82880000D01*
X211780000Y-83420000D02*
X208760000Y-86440000D01*
X212310000Y-82880000D02*
X211780000Y-83410000D01*
X211780000Y-83410000D02*
X211780000Y-83420000D01*
X223900000Y-41810000D02*
X223900000Y-43076346D01*
X223900000Y-43076346D02*
X212310000Y-54666346D01*
X214140000Y-41050000D02*
X223140000Y-41050000D01*
X223140000Y-41050000D02*
X223900000Y-41810000D01*
X212590000Y-42600000D02*
X214140000Y-41050000D01*
%TO.N,Net-(J14-Pin_5)*%
X211710000Y-80950000D02*
X208760000Y-83900000D01*
X220620000Y-44290000D02*
X220620000Y-44300000D01*
X221360000Y-43550000D02*
X220620000Y-44290000D01*
X221360000Y-41900000D02*
X221360000Y-43550000D01*
X220910000Y-41450000D02*
X221360000Y-41900000D01*
X220620000Y-44300000D02*
X211710000Y-53210000D01*
X211710000Y-53210000D02*
X211710000Y-80950000D01*
X216280000Y-41450000D02*
X220910000Y-41450000D01*
X215130000Y-42600000D02*
X216280000Y-41450000D01*
%TO.N,Net-(J1-SCK)*%
X209090000Y-68660000D02*
X208760000Y-68660000D01*
X211110000Y-66640000D02*
X209090000Y-68660000D01*
X220210000Y-42600000D02*
X211110000Y-51700000D01*
X211110000Y-51700000D02*
X211110000Y-66640000D01*
%TO.N,Net-(J11-Pin_5)*%
X222720000Y-87720000D02*
X224000000Y-86440000D01*
X222720000Y-92060000D02*
X222720000Y-87720000D01*
X232870000Y-92720000D02*
X223380000Y-92720000D01*
X236350000Y-89240000D02*
X232870000Y-92720000D01*
X223380000Y-92720000D02*
X222720000Y-92060000D01*
%TO.N,Net-(J11-Pin_6)*%
X225380000Y-82520000D02*
X224000000Y-83900000D01*
X236930000Y-82520000D02*
X225380000Y-82520000D01*
X240280000Y-85870000D02*
X236930000Y-82520000D01*
X238890000Y-89240000D02*
X240280000Y-87850000D01*
X240280000Y-87850000D02*
X240280000Y-85870000D01*
%TO.N,Net-(J11-Pin_7)*%
X240990000Y-88766346D02*
X240990000Y-85750000D01*
X236600000Y-81360000D02*
X224000000Y-81360000D01*
X239366346Y-90390000D02*
X240990000Y-88766346D01*
X237740000Y-90390000D02*
X239366346Y-90390000D01*
X236350000Y-91780000D02*
X237740000Y-90390000D01*
X240990000Y-85750000D02*
X236600000Y-81360000D01*
%TO.N,Net-(J11-Pin_8)*%
X241770000Y-85550000D02*
X236560000Y-80340000D01*
X236560000Y-80340000D02*
X225520000Y-80340000D01*
X241770000Y-88900000D02*
X241770000Y-85550000D01*
X225520000Y-80340000D02*
X224000000Y-78820000D01*
X238890000Y-91780000D02*
X241770000Y-88900000D01*
%TO.N,Net-(J11-Pin_4)*%
X237740000Y-85550000D02*
X227430000Y-85550000D01*
X238890000Y-86700000D02*
X237740000Y-85550000D01*
X227430000Y-85550000D02*
X224000000Y-88980000D01*
%TO.N,Net-(J11-Pin_3)*%
X228820000Y-86700000D02*
X224000000Y-91520000D01*
X236350000Y-86700000D02*
X228820000Y-86700000D01*
%TO.N,GND*%
X238000000Y-169884497D02*
X238010000Y-169874497D01*
%TO.N,Net-(J13-Pin_1)*%
X210050000Y-59750000D02*
X208760000Y-61040000D01*
X210050000Y-42600000D02*
X210050000Y-59750000D01*
%TO.N,Net-(J1-MOSI)*%
X209190000Y-63580000D02*
X208760000Y-63580000D01*
X210540000Y-49730000D02*
X210540000Y-62230000D01*
X210540000Y-62230000D02*
X209190000Y-63580000D01*
X217670000Y-42600000D02*
X210540000Y-49730000D01*
%TO.N,GND*%
X223650000Y-73740000D02*
X224000000Y-73740000D01*
X194955113Y-80500000D02*
X191455113Y-77000000D01*
X201910226Y-80500000D02*
X194955113Y-80500000D01*
X201910226Y-80500000D02*
X198410226Y-77000000D01*
%TO.N,+5.0v*%
X196715113Y-73740000D02*
X203670226Y-73740000D01*
X193455113Y-77000000D02*
X196715113Y-73740000D01*
X203670226Y-73740000D02*
X200410226Y-77000000D01*
X208760000Y-73740000D02*
X203670226Y-73740000D01*
%TO.N,GND*%
X233640000Y-73740000D02*
X236900000Y-77000000D01*
X224000000Y-73740000D02*
X233640000Y-73740000D01*
%TO.N,Net-(U5-AREF)*%
X233100000Y-71200000D02*
X238900000Y-77000000D01*
X224000000Y-71200000D02*
X233100000Y-71200000D01*
%TO.N,+5.0v*%
X222030000Y-78250000D02*
X224000000Y-76280000D01*
X222030000Y-94050000D02*
X222030000Y-78250000D01*
X224660000Y-95330000D02*
X223310000Y-95330000D01*
X236350000Y-107020000D02*
X224660000Y-95330000D01*
X223310000Y-95330000D02*
X222030000Y-94050000D01*
%TD*%
M02*
