%TF.GenerationSoftware,KiCad,Pcbnew,10.0.1*%
%TF.CreationDate,2026-05-26T01:56:23+03:00*%
%TF.ProjectId,DIPLOM,4449504c-4f4d-42e6-9b69-6361645f7063,rev?*%
%TF.SameCoordinates,Original*%
%TF.FileFunction,Soldermask,Top*%
%TF.FilePolarity,Negative*%
%FSLAX46Y46*%
G04 Gerber Fmt 4.6, Leading zero omitted, Abs format (unit mm)*
G04 Created by KiCad (PCBNEW 10.0.1) date 2026-05-26 01:56:23*
%MOMM*%
%LPD*%
G01*
G04 APERTURE LIST*
G04 Aperture macros list*
%AMRoundRect*
0 Rectangle with rounded corners*
0 $1 Rounding radius*
0 $2 $3 $4 $5 $6 $7 $8 $9 X,Y pos of 4 corners*
0 Add a 4 corners polygon primitive as box body*
4,1,4,$2,$3,$4,$5,$6,$7,$8,$9,$2,$3,0*
0 Add four circle primitives for the rounded corners*
1,1,$1+$1,$2,$3*
1,1,$1+$1,$4,$5*
1,1,$1+$1,$6,$7*
1,1,$1+$1,$8,$9*
0 Add four rect primitives between the rounded corners*
20,1,$1+$1,$2,$3,$4,$5,0*
20,1,$1+$1,$4,$5,$6,$7,0*
20,1,$1+$1,$6,$7,$8,$9,0*
20,1,$1+$1,$8,$9,$2,$3,0*%
G04 Aperture macros list end*
%ADD10C,1.700000*%
%ADD11R,1.700000X1.700000*%
%ADD12C,1.600000*%
%ADD13RoundRect,0.250000X0.550000X0.550000X-0.550000X0.550000X-0.550000X-0.550000X0.550000X-0.550000X0*%
%ADD14C,1.400000*%
%ADD15C,2.000000*%
%ADD16RoundRect,0.250000X-0.550000X-0.550000X0.550000X-0.550000X0.550000X0.550000X-0.550000X0.550000X0*%
G04 APERTURE END LIST*
D10*
%TO.C,P3*%
X196490000Y-66120000D03*
X193950000Y-66120000D03*
X196490000Y-63580000D03*
X193950000Y-63580000D03*
X196490000Y-61040000D03*
X193950000Y-61040000D03*
X196490000Y-58500000D03*
X193950000Y-58500000D03*
X196490000Y-55960000D03*
X193950000Y-55960000D03*
X196490000Y-53420000D03*
X193950000Y-53420000D03*
X196490000Y-50880000D03*
X193950000Y-50880000D03*
X196490000Y-48340000D03*
X193950000Y-48340000D03*
X196490000Y-45800000D03*
X193950000Y-45800000D03*
X196490000Y-43260000D03*
D11*
X193950000Y-43260000D03*
%TD*%
D12*
%TO.C,C4*%
X198410226Y-77000000D03*
D13*
X200410226Y-77000000D03*
%TD*%
%TO.C,C5*%
X193455113Y-77000000D03*
D12*
X191455113Y-77000000D03*
%TD*%
D14*
%TO.C,R1*%
X193696944Y-160900547D03*
X198776944Y-160900547D03*
%TD*%
D15*
%TO.C,SW5*%
X219650000Y-137750000D03*
X213150000Y-137750000D03*
X219650000Y-142250000D03*
X213150000Y-142250000D03*
%TD*%
%TO.C,SW1*%
X194250000Y-171250000D03*
X200750000Y-171250000D03*
X194250000Y-166750000D03*
X200750000Y-166750000D03*
%TD*%
D11*
%TO.C,REF\u002A\u002A*%
X238019276Y-147000000D03*
D10*
X235479276Y-147000000D03*
%TD*%
D11*
%TO.C,REF\u002A\u002A*%
X238000000Y-169884497D03*
D10*
X235460000Y-169884497D03*
%TD*%
%TO.C,P4*%
X238900000Y-66160000D03*
X236360000Y-66160000D03*
X238900000Y-63620000D03*
X236360000Y-63620000D03*
X238900000Y-61080000D03*
X236360000Y-61080000D03*
X238900000Y-58540000D03*
X236360000Y-58540000D03*
X238900000Y-56000000D03*
X236360000Y-56000000D03*
X238900000Y-53460000D03*
X236360000Y-53460000D03*
X238900000Y-50920000D03*
X236360000Y-50920000D03*
X238900000Y-48380000D03*
X236360000Y-48380000D03*
X238900000Y-45840000D03*
X236360000Y-45840000D03*
X238900000Y-43300000D03*
D11*
X236360000Y-43300000D03*
%TD*%
%TO.C,P2*%
X193940000Y-86660000D03*
D10*
X196480000Y-86660000D03*
X193940000Y-89200000D03*
X196480000Y-89200000D03*
X193940000Y-91740000D03*
X196480000Y-91740000D03*
X193940000Y-94280000D03*
X196480000Y-94280000D03*
X193940000Y-96820000D03*
X196480000Y-96820000D03*
X193940000Y-99360000D03*
X196480000Y-99360000D03*
X193940000Y-101900000D03*
X196480000Y-101900000D03*
X193940000Y-104440000D03*
X196480000Y-104440000D03*
X193940000Y-106980000D03*
X196480000Y-106980000D03*
X193940000Y-109520000D03*
X196480000Y-109520000D03*
%TD*%
D11*
%TO.C,P1*%
X236350000Y-86700000D03*
D10*
X238890000Y-86700000D03*
X236350000Y-89240000D03*
X238890000Y-89240000D03*
X236350000Y-91780000D03*
X238890000Y-91780000D03*
X236350000Y-94320000D03*
X238890000Y-94320000D03*
X236350000Y-96860000D03*
X238890000Y-96860000D03*
X236350000Y-99400000D03*
X238890000Y-99400000D03*
X236350000Y-101940000D03*
X238890000Y-101940000D03*
X236350000Y-104480000D03*
X238890000Y-104480000D03*
X236350000Y-107020000D03*
X238890000Y-107020000D03*
X236350000Y-109560000D03*
X238890000Y-109560000D03*
%TD*%
D15*
%TO.C,SW4*%
X213150000Y-129750000D03*
X219650000Y-129750000D03*
X213150000Y-125250000D03*
X219650000Y-125250000D03*
%TD*%
%TO.C,SW3*%
X213150000Y-117250000D03*
X219650000Y-117250000D03*
X213150000Y-112750000D03*
X219650000Y-112750000D03*
%TD*%
%TO.C,SW2*%
X227650000Y-129750000D03*
X234150000Y-129750000D03*
X227650000Y-125250000D03*
X234150000Y-125250000D03*
%TD*%
%TO.C,SW6*%
X205150000Y-125250000D03*
X198650000Y-125250000D03*
X205150000Y-129750000D03*
X198650000Y-129750000D03*
%TD*%
D13*
%TO.C,C3*%
X238900000Y-77000000D03*
D12*
X236900000Y-77000000D03*
%TD*%
%TO.C,U5*%
X224000000Y-50880000D03*
X224000000Y-53420000D03*
X224000000Y-55960000D03*
X224000000Y-58500000D03*
X224000000Y-61040000D03*
X224000000Y-63580000D03*
X224000000Y-66120000D03*
X224000000Y-68660000D03*
X224000000Y-71200000D03*
X224000000Y-73740000D03*
X224000000Y-76280000D03*
X224000000Y-78820000D03*
X224000000Y-81360000D03*
X224000000Y-83900000D03*
X224000000Y-86440000D03*
X224000000Y-88980000D03*
X224000000Y-91520000D03*
X224000000Y-94060000D03*
X224000000Y-96600000D03*
X224000000Y-99140000D03*
X208760000Y-99140000D03*
X208760000Y-96600000D03*
X208760000Y-94060000D03*
X208760000Y-91520000D03*
X208760000Y-88980000D03*
X208760000Y-86440000D03*
X208760000Y-83900000D03*
X208760000Y-81360000D03*
X208760000Y-78820000D03*
X208760000Y-76280000D03*
X208760000Y-73740000D03*
X208760000Y-71200000D03*
X208760000Y-68660000D03*
X208760000Y-66120000D03*
X208760000Y-63580000D03*
X208760000Y-61040000D03*
X208760000Y-58500000D03*
X208760000Y-55960000D03*
X208760000Y-53420000D03*
D16*
X208760000Y-50880000D03*
%TD*%
D11*
%TO.C,J14*%
X225290000Y-42600000D03*
D10*
X222750000Y-42600000D03*
X220210000Y-42600000D03*
X217670000Y-42600000D03*
X215130000Y-42600000D03*
X212590000Y-42600000D03*
X210050000Y-42600000D03*
X207510000Y-42600000D03*
%TD*%
%TO.C,J1*%
X218400000Y-31500000D03*
X218400000Y-34040000D03*
X215860000Y-31500000D03*
X215860000Y-34040000D03*
X213320000Y-31500000D03*
D11*
X213320000Y-34040000D03*
%TD*%
M02*
