%TF.GenerationSoftware,KiCad,Pcbnew,10.0.1*%
%TF.CreationDate,2026-05-26T01:56:23+03:00*%
%TF.ProjectId,DIPLOM,4449504c-4f4d-42e6-9b69-6361645f7063,rev?*%
%TF.SameCoordinates,Original*%
%TF.FileFunction,Profile,NP*%
%FSLAX46Y46*%
G04 Gerber Fmt 4.6, Leading zero omitted, Abs format (unit mm)*
G04 Created by KiCad (PCBNEW 10.0.1) date 2026-05-26 01:56:23*
%MOMM*%
%LPD*%
G01*
G04 APERTURE LIST*
%TA.AperFunction,Profile*%
%ADD10C,0.050000*%
%TD*%
%ADD11C,0.150000*%
G04 APERTURE END LIST*
D10*
X166400000Y-176830000D02*
X166400000Y-26840000D01*
X266400000Y-176830000D02*
X166400000Y-176830000D01*
D11*
X241161904Y-20804819D02*
X240685714Y-20804819D01*
X240685714Y-20804819D02*
X240638095Y-21281009D01*
X240638095Y-21281009D02*
X240685714Y-21233390D01*
X240685714Y-21233390D02*
X240780952Y-21185771D01*
X240780952Y-21185771D02*
X241019047Y-21185771D01*
X241019047Y-21185771D02*
X241114285Y-21233390D01*
X241114285Y-21233390D02*
X241161904Y-21281009D01*
X241161904Y-21281009D02*
X241209523Y-21376247D01*
X241209523Y-21376247D02*
X241209523Y-21614342D01*
X241209523Y-21614342D02*
X241161904Y-21709580D01*
X241161904Y-21709580D02*
X241114285Y-21757200D01*
X241114285Y-21757200D02*
X241019047Y-21804819D01*
X241019047Y-21804819D02*
X240780952Y-21804819D01*
X240780952Y-21804819D02*
X240685714Y-21757200D01*
X240685714Y-21757200D02*
X240638095Y-21709580D01*
X241828571Y-20804819D02*
X241923809Y-20804819D01*
X241923809Y-20804819D02*
X242019047Y-20852438D01*
X242019047Y-20852438D02*
X242066666Y-20900057D01*
X242066666Y-20900057D02*
X242114285Y-20995295D01*
X242114285Y-20995295D02*
X242161904Y-21185771D01*
X242161904Y-21185771D02*
X242161904Y-21423866D01*
X242161904Y-21423866D02*
X242114285Y-21614342D01*
X242114285Y-21614342D02*
X242066666Y-21709580D01*
X242066666Y-21709580D02*
X242019047Y-21757200D01*
X242019047Y-21757200D02*
X241923809Y-21804819D01*
X241923809Y-21804819D02*
X241828571Y-21804819D01*
X241828571Y-21804819D02*
X241733333Y-21757200D01*
X241733333Y-21757200D02*
X241685714Y-21709580D01*
X241685714Y-21709580D02*
X241638095Y-21614342D01*
X241638095Y-21614342D02*
X241590476Y-21423866D01*
X241590476Y-21423866D02*
X241590476Y-21185771D01*
X241590476Y-21185771D02*
X241638095Y-20995295D01*
X241638095Y-20995295D02*
X241685714Y-20900057D01*
X241685714Y-20900057D02*
X241733333Y-20852438D01*
X241733333Y-20852438D02*
X241828571Y-20804819D01*
D10*
X266400000Y-26340000D02*
X266400000Y-21913580D01*
X216400000Y-21913580D02*
X216400000Y-26340000D01*
X266400000Y-22500000D02*
X216400000Y-22500000D01*
X266400000Y-22500000D02*
X265273496Y-23086421D01*
X266400000Y-22500000D02*
X265273496Y-21913579D01*
X216400000Y-22500000D02*
X217526504Y-21913579D01*
X216400000Y-22500000D02*
X217526504Y-23086421D01*
X266400000Y-26860000D02*
X266400000Y-176830000D01*
X166400000Y-26840000D02*
X266400000Y-26840000D01*
M02*
