%TF.GenerationSoftware,KiCad,Pcbnew,10.0.1*%
%TF.CreationDate,2026-05-26T01:56:23+03:00*%
%TF.ProjectId,DIPLOM,4449504c-4f4d-42e6-9b69-6361645f7063,rev?*%
%TF.SameCoordinates,Original*%
%TF.FileFunction,Legend,Top*%
%TF.FilePolarity,Positive*%
%FSLAX46Y46*%
G04 Gerber Fmt 4.6, Leading zero omitted, Abs format (unit mm)*
G04 Created by KiCad (PCBNEW 10.0.1) date 2026-05-26 01:56:23*
%MOMM*%
%LPD*%
G01*
G04 APERTURE LIST*
%ADD10C,0.150000*%
%ADD11C,0.120000*%
G04 APERTURE END LIST*
D10*
X194481905Y-41334819D02*
X194481905Y-40334819D01*
X194481905Y-40334819D02*
X194862857Y-40334819D01*
X194862857Y-40334819D02*
X194958095Y-40382438D01*
X194958095Y-40382438D02*
X195005714Y-40430057D01*
X195005714Y-40430057D02*
X195053333Y-40525295D01*
X195053333Y-40525295D02*
X195053333Y-40668152D01*
X195053333Y-40668152D02*
X195005714Y-40763390D01*
X195005714Y-40763390D02*
X194958095Y-40811009D01*
X194958095Y-40811009D02*
X194862857Y-40858628D01*
X194862857Y-40858628D02*
X194481905Y-40858628D01*
X195386667Y-40334819D02*
X196005714Y-40334819D01*
X196005714Y-40334819D02*
X195672381Y-40715771D01*
X195672381Y-40715771D02*
X195815238Y-40715771D01*
X195815238Y-40715771D02*
X195910476Y-40763390D01*
X195910476Y-40763390D02*
X195958095Y-40811009D01*
X195958095Y-40811009D02*
X196005714Y-40906247D01*
X196005714Y-40906247D02*
X196005714Y-41144342D01*
X196005714Y-41144342D02*
X195958095Y-41239580D01*
X195958095Y-41239580D02*
X195910476Y-41287200D01*
X195910476Y-41287200D02*
X195815238Y-41334819D01*
X195815238Y-41334819D02*
X195529524Y-41334819D01*
X195529524Y-41334819D02*
X195434286Y-41287200D01*
X195434286Y-41287200D02*
X195386667Y-41239580D01*
X236891905Y-41374819D02*
X236891905Y-40374819D01*
X236891905Y-40374819D02*
X237272857Y-40374819D01*
X237272857Y-40374819D02*
X237368095Y-40422438D01*
X237368095Y-40422438D02*
X237415714Y-40470057D01*
X237415714Y-40470057D02*
X237463333Y-40565295D01*
X237463333Y-40565295D02*
X237463333Y-40708152D01*
X237463333Y-40708152D02*
X237415714Y-40803390D01*
X237415714Y-40803390D02*
X237368095Y-40851009D01*
X237368095Y-40851009D02*
X237272857Y-40898628D01*
X237272857Y-40898628D02*
X236891905Y-40898628D01*
X238320476Y-40708152D02*
X238320476Y-41374819D01*
X238082381Y-40327200D02*
X237844286Y-41041485D01*
X237844286Y-41041485D02*
X238463333Y-41041485D01*
X194471905Y-84734819D02*
X194471905Y-83734819D01*
X194471905Y-83734819D02*
X194852857Y-83734819D01*
X194852857Y-83734819D02*
X194948095Y-83782438D01*
X194948095Y-83782438D02*
X194995714Y-83830057D01*
X194995714Y-83830057D02*
X195043333Y-83925295D01*
X195043333Y-83925295D02*
X195043333Y-84068152D01*
X195043333Y-84068152D02*
X194995714Y-84163390D01*
X194995714Y-84163390D02*
X194948095Y-84211009D01*
X194948095Y-84211009D02*
X194852857Y-84258628D01*
X194852857Y-84258628D02*
X194471905Y-84258628D01*
X195424286Y-83830057D02*
X195471905Y-83782438D01*
X195471905Y-83782438D02*
X195567143Y-83734819D01*
X195567143Y-83734819D02*
X195805238Y-83734819D01*
X195805238Y-83734819D02*
X195900476Y-83782438D01*
X195900476Y-83782438D02*
X195948095Y-83830057D01*
X195948095Y-83830057D02*
X195995714Y-83925295D01*
X195995714Y-83925295D02*
X195995714Y-84020533D01*
X195995714Y-84020533D02*
X195948095Y-84163390D01*
X195948095Y-84163390D02*
X195376667Y-84734819D01*
X195376667Y-84734819D02*
X195995714Y-84734819D01*
X236881905Y-84774819D02*
X236881905Y-83774819D01*
X236881905Y-83774819D02*
X237262857Y-83774819D01*
X237262857Y-83774819D02*
X237358095Y-83822438D01*
X237358095Y-83822438D02*
X237405714Y-83870057D01*
X237405714Y-83870057D02*
X237453333Y-83965295D01*
X237453333Y-83965295D02*
X237453333Y-84108152D01*
X237453333Y-84108152D02*
X237405714Y-84203390D01*
X237405714Y-84203390D02*
X237358095Y-84251009D01*
X237358095Y-84251009D02*
X237262857Y-84298628D01*
X237262857Y-84298628D02*
X236881905Y-84298628D01*
X238405714Y-84774819D02*
X237834286Y-84774819D01*
X238120000Y-84774819D02*
X238120000Y-83774819D01*
X238120000Y-83774819D02*
X238024762Y-83917676D01*
X238024762Y-83917676D02*
X237929524Y-84012914D01*
X237929524Y-84012914D02*
X237834286Y-84060533D01*
X215618095Y-48004819D02*
X215618095Y-48814342D01*
X215618095Y-48814342D02*
X215665714Y-48909580D01*
X215665714Y-48909580D02*
X215713333Y-48957200D01*
X215713333Y-48957200D02*
X215808571Y-49004819D01*
X215808571Y-49004819D02*
X215999047Y-49004819D01*
X215999047Y-49004819D02*
X216094285Y-48957200D01*
X216094285Y-48957200D02*
X216141904Y-48909580D01*
X216141904Y-48909580D02*
X216189523Y-48814342D01*
X216189523Y-48814342D02*
X216189523Y-48004819D01*
X217141904Y-48004819D02*
X216665714Y-48004819D01*
X216665714Y-48004819D02*
X216618095Y-48481009D01*
X216618095Y-48481009D02*
X216665714Y-48433390D01*
X216665714Y-48433390D02*
X216760952Y-48385771D01*
X216760952Y-48385771D02*
X216999047Y-48385771D01*
X216999047Y-48385771D02*
X217094285Y-48433390D01*
X217094285Y-48433390D02*
X217141904Y-48481009D01*
X217141904Y-48481009D02*
X217189523Y-48576247D01*
X217189523Y-48576247D02*
X217189523Y-48814342D01*
X217189523Y-48814342D02*
X217141904Y-48909580D01*
X217141904Y-48909580D02*
X217094285Y-48957200D01*
X217094285Y-48957200D02*
X216999047Y-49004819D01*
X216999047Y-49004819D02*
X216760952Y-49004819D01*
X216760952Y-49004819D02*
X216665714Y-48957200D01*
X216665714Y-48957200D02*
X216618095Y-48909580D01*
%TO.C,P3*%
D11*
X197870000Y-41880000D02*
X197870000Y-67500000D01*
X195220000Y-44530000D02*
X195220000Y-41880000D01*
X195220000Y-41880000D02*
X197870000Y-41880000D01*
X192570000Y-67500000D02*
X197870000Y-67500000D01*
X192570000Y-44530000D02*
X195220000Y-44530000D01*
X192570000Y-44530000D02*
X192570000Y-67500000D01*
X192570000Y-43260000D02*
X192570000Y-41880000D01*
X192570000Y-41880000D02*
X193950000Y-41880000D01*
%TO.C,P4*%
X240280000Y-41920000D02*
X240280000Y-67540000D01*
X237630000Y-44570000D02*
X237630000Y-41920000D01*
X237630000Y-41920000D02*
X240280000Y-41920000D01*
X234980000Y-67540000D02*
X240280000Y-67540000D01*
X234980000Y-44570000D02*
X237630000Y-44570000D01*
X234980000Y-44570000D02*
X234980000Y-67540000D01*
X234980000Y-43300000D02*
X234980000Y-41920000D01*
X234980000Y-41920000D02*
X236360000Y-41920000D01*
%TO.C,P2*%
X192560000Y-85280000D02*
X193940000Y-85280000D01*
X192560000Y-86660000D02*
X192560000Y-85280000D01*
X192560000Y-87930000D02*
X192560000Y-110900000D01*
X192560000Y-87930000D02*
X195210000Y-87930000D01*
X192560000Y-110900000D02*
X197860000Y-110900000D01*
X195210000Y-85280000D02*
X197860000Y-85280000D01*
X195210000Y-87930000D02*
X195210000Y-85280000D01*
X197860000Y-85280000D02*
X197860000Y-110900000D01*
%TO.C,P1*%
X234970000Y-85320000D02*
X236350000Y-85320000D01*
X234970000Y-86700000D02*
X234970000Y-85320000D01*
X234970000Y-87970000D02*
X234970000Y-110940000D01*
X234970000Y-87970000D02*
X237620000Y-87970000D01*
X234970000Y-110940000D02*
X240270000Y-110940000D01*
X237620000Y-85320000D02*
X240270000Y-85320000D01*
X237620000Y-87970000D02*
X237620000Y-85320000D01*
X240270000Y-85320000D02*
X240270000Y-110940000D01*
%TO.C,U5*%
X217380000Y-49550000D02*
G75*
G02*
X215380000Y-49550000I-1000000J0D01*
G01*
X222840000Y-100470000D02*
X222840000Y-49550000D01*
X222840000Y-49550000D02*
X217380000Y-49550000D01*
X215380000Y-49550000D02*
X209920000Y-49550000D01*
X209920000Y-100470000D02*
X222840000Y-100470000D01*
X209920000Y-49550000D02*
X209920000Y-100470000D01*
%TD*%
M02*
